<svg width="254" height="40" viewBox="0 0 254 40" fill="none" xmlns="http://www.w3.org/2000/svg">
<g clip-path="url(#clip0_40005205_21160)">
<path d="M217.84 19.1624C217.53 17.8267 216.966 16.6996 216.124 15.7244V15.7168C214.963 14.4228 213.488 13.5614 211.607 13.0833C209.871 12.6279 207.309 12.4078 203.799 12.4078C199.957 12.4078 197.494 12.8518 195.739 13.5121C194.958 13.7967 194.111 14.4076 193.483 14.9958V13.7094H188.521V39.65H193.502V23.1696C193.502 18.874 197.904 17.174 202.298 17.174H204.493C208.887 17.174 213.327 18.874 213.327 23.1696V39.65H218.254V25.4996C218.254 22.2892 218.127 20.335 217.848 19.1624" fill="#ED1C24"/>
<path d="M133.945 12.3323H138.906C138.964 9.67602 139.052 7.14495 139.343 5.98757C139.573 4.84157 140.094 3.85874 140.845 3.11118C141.711 2.07902 142.917 1.33146 144.473 0.815384C145.971 0.413145 148.526 0.067827 151.867 0.00711166L156.525 -0.00427246L152.039 4.36343C151.886 4.36343 150.3 4.36723 150.146 4.36723C143.546 4.36723 144.009 8.58694 144.009 12.3285H155.613L150.92 17.0909H143.894L143.921 39.6087H138.91V17.0909H133.949V12.3285L133.945 12.3323Z" fill="#ED1C24"/>
<path d="M133.942 3.79883H128.98V8.87994H133.942V3.79883Z" fill="#ED1C24"/>
<path d="M90.656 26.0467C90.656 29.1356 90.2959 31.6628 89.5756 33.5602C88.8516 35.5335 86.3921 39.996 74.3935 39.996C62.3949 39.996 59.9354 35.5335 59.219 33.5602C58.5026 31.6628 58.1387 29.1356 58.1387 26.0467C58.1387 22.9578 58.5026 20.4229 59.219 18.5294C59.9392 16.5561 62.4064 12.1011 74.3935 12.1011C86.3806 12.1011 88.8516 16.5561 89.5756 18.5294C90.2959 20.4229 90.656 22.9616 90.656 26.0467ZM84.377 20.089C83.9173 18.9658 83.1128 18.2372 81.8716 17.8122C80.5958 17.4023 78.3356 17.1671 74.3897 17.1026C70.4438 17.1671 68.1988 17.4023 66.9078 17.8122C65.6742 18.2372 64.8774 18.9658 64.41 20.089C64.0422 20.9466 63.6208 23.0337 63.6208 26.0467C63.6208 29.0597 64.0422 31.1506 64.41 32.0082C64.8774 33.1314 65.6704 33.8524 66.9078 34.2812C68.1988 34.6948 70.4438 34.9377 74.3897 34.9908C78.3356 34.9339 80.5958 34.6948 81.8716 34.2812C83.1128 33.8524 83.9173 33.1314 84.377 32.0082C84.7448 31.1544 85.1624 29.0635 85.1624 26.0467C85.1624 23.0299 84.7448 20.9466 84.377 20.089Z" fill="#0061AF"/>
<path d="M184.867 26.0467C184.867 29.1356 184.507 31.6628 183.794 33.5602C183.07 35.5335 180.603 39.996 168.616 39.996C156.629 39.996 154.154 35.5335 153.43 33.5602C152.721 31.6628 152.354 29.1356 152.354 26.0467C152.354 22.9578 152.721 20.4229 153.43 18.5294C154.154 16.5561 156.621 12.1011 168.616 12.1011C180.611 12.1011 183.074 16.5561 183.794 18.5294C184.507 20.4229 184.867 22.9616 184.867 26.0467ZM178.588 20.089C178.132 18.9658 177.331 18.2372 176.09 17.8122C174.807 17.4023 172.547 17.1671 168.612 17.1026C164.659 17.1671 162.406 17.4023 161.123 17.8122C159.889 18.2372 159.088 18.9658 158.625 20.089C158.261 20.9466 157.839 23.0337 157.839 26.0467C157.839 29.0597 158.261 31.1506 158.625 32.0082C159.088 33.1314 159.889 33.8524 161.123 34.2812C162.406 34.6948 164.659 34.9377 168.612 34.9908C172.547 34.9339 174.807 34.6948 176.09 34.2812C177.328 33.8524 178.132 33.1314 178.588 32.0082C178.96 31.1544 179.373 29.0635 179.373 26.0467C179.373 23.0299 178.956 20.9466 178.588 20.089Z" fill="#ED1C24"/>
<path d="M54.1623 19.1212C53.8405 17.7816 53.2812 16.6546 52.4269 15.6794H52.4192C51.2546 14.3816 49.7643 13.5202 47.8718 13.0421C46.1211 12.5829 43.5965 12.3628 40.0452 12.3628C36.1759 12.3628 33.5517 12.6664 31.7817 13.338H31.7741C30.3145 13.8655 29.0962 14.8445 28.1998 16.1841C27.1501 14.78 25.8552 13.8162 24.2424 13.2735C22.4035 12.655 18.994 12.359 14.6918 12.359C11.4508 12.359 9.23264 12.5829 7.89563 13.0534H7.88797C6.88426 13.4405 5.91885 14.0818 4.9726 14.9925V13.6568H0V39.5936H4.95728V23.1246C4.95728 18.8214 9.33608 17.1214 13.7609 17.1214H15.9828C20.3999 17.1214 24.8324 18.8214 24.8324 23.1246V39.5936H29.7858V23.1246C29.7858 18.8214 34.1148 17.1214 38.5396 17.1214H40.7616C45.1787 17.1214 49.6149 18.8214 49.6149 23.1246V39.5936H54.5684V25.4469C54.5684 22.2366 54.4458 20.2824 54.1661 19.1098" fill="#0061AF"/>
<path d="M251.324 27.9402H253.86C253.899 27.3331 253.914 26.7032 253.914 26.0467C253.914 22.9616 253.558 20.4229 252.837 18.5294C252.113 16.5561 249.646 12.1011 237.659 12.1011C225.672 12.1011 223.197 16.5561 222.477 18.5294C221.768 20.4229 221.4 22.9616 221.4 26.0467C221.4 29.1318 221.768 31.6628 222.477 33.5602C223.201 35.5335 225.668 39.996 237.659 39.996C249.65 39.996 252.117 35.5335 252.837 33.5602C252.902 33.3894 252.96 33.2073 253.021 33.0251H247.033C246.574 33.5868 245.953 34.0004 245.145 34.2774C243.858 34.691 241.605 34.9339 237.659 34.987C233.717 34.9301 231.457 34.691 230.173 34.2774C228.936 33.8486 228.135 33.1276 227.672 32.0044C227.384 31.3479 227.078 29.9552 226.951 27.9668H251.316V27.9364L251.324 27.9402ZM230.173 17.8122C231.457 17.4023 233.713 17.1671 237.659 17.1026C241.601 17.1671 243.858 17.3985 245.145 17.8122C246.382 18.2372 247.183 18.9658 247.646 20.089C247.88 20.6506 248.141 21.7397 248.294 23.2728H227.02C227.174 21.7397 227.434 20.6506 227.672 20.089C228.135 18.9658 228.932 18.2372 230.173 17.8122Z" fill="#ED1C24"/>
<path d="M133.948 12.3285H128.99V39.6048H133.948V12.3285Z" fill="#0061AF"/>
<path d="M124.408 18.5366C123.691 16.5633 121.216 12.1045 109.233 12.1045C104.64 12.1045 101.456 12.761 99.2152 13.668V0.00701904H94.2617V39.6731H99.2152V38.4246C101.456 39.3391 104.636 39.9956 109.233 39.9956C121.213 39.9956 123.691 35.5331 124.408 33.5598C125.128 31.6625 125.492 29.1352 125.492 26.0463C125.492 22.9574 125.124 20.4263 124.408 18.5328M119.217 32.0078C118.749 33.131 117.952 33.8558 116.711 34.2808C115.424 34.6906 113.171 34.9373 109.233 34.9904C105.283 34.9373 103.732 34.6944 102.452 34.2808C101.207 33.8558 100.41 33.131 99.9469 32.0078C99.6596 31.3247 99.3378 29.8827 99.2152 27.8184V24.278C99.3378 22.2174 99.6596 20.7679 99.9469 20.0886C100.41 18.9654 101.207 18.2368 102.452 17.8156C103.732 17.3982 105.283 17.1667 109.233 17.1022C113.171 17.1667 115.424 17.3982 116.711 17.8156C117.949 18.2368 118.749 18.9654 119.217 20.0886C119.581 20.9424 119.994 23.0333 119.994 26.0463C119.994 29.0593 119.581 31.1502 119.217 32.0078Z" fill="#0061AF"/>
</g>
<defs>
<clipPath id="clip0_40005205_21160">
<rect width="253.913" height="40" fill="white"/>
</clipPath>
</defs>
</svg>
